<svg xmlns="http://www.w3.org/2000/svg" width="150" height="150" stroke="#000" class="icon" viewBox="0 0 1024 1024"><path fill="#fff" d="M0 1h1023v1023H0z"/><path fill="#0ad6ff" d="m844 209-42-12 42-11 12-43 11 43 43 11-43 12-11 42-12-42zM105 717l-32-7 32-8 8-32 7 32 33 8-33 7-7 33-8-33zm778-455-15-3 15-4 3-14 3 14 15 4-15 3-3 15-3-15zM110 544l-15-3 15-3 3-15 3 15 15 3-15 3-3 15-3-15z"/><path d="M106 349a9 9 0 1 0 18 0 9 9 0 1 0-18 0Zm804 362a25 25 0 1 1 25-25 25 25 0 0 1-25 25zm0-36a10 10 0 1 1 0 1z"/><path fill="#0ad6ff" d="M626 470h70v204h-70z"/><path d="M191 734h644v35H191z"/><path d="M855 714H171v75h684zm-20 55H191v-35h644zm-684 68h722v35H151z"/><path d="M128 817v75h767v-75zm745 55H151v-35h722z"/><path fill="#0ad6ff" d="M488 484h49v182h-49z"/><path d="M468 686h89V464h-89zm20-202h49v182h-49z"/><path fill="#0ad6ff" d="M340 484h50v182h-50z"/><path d="M320 686h90V464h-90zm20-202h50v182h-50zM191 374h50v41h-50z"/><path d="M261 354h-90v81h90zm-20 61h-50v-41h50zm543-41h50v41h-50z"/><path d="M854 354h-90v81h90zm-20 61h-50v-41h50zm-198-41h50v41h-50z"/><path d="M706 354h-90v81h90zm-20 61h-50v-41h50zm-198-41h49v41h-49z"/><path d="M557 354h-89v81h89zm-20 61h-49v-41h49zm-197-41h50v41h-50z"/><path d="M410 354h-90v81h90zm-20 61h-50v-41h50z"/><path fill="#0ad6ff" d="M515 141 242 306h542L515 141z"/><path d="M515 117 171 326h683zm0 24 269 165H242zm100 547h90V466h-90zm20-202h50v182h-50z"/><path fill="#0ad6ff" d="M783 486h50v182h-50z"/><path d="M763 688h90V466h-90zm20-202h50v182h-50z"/><path fill="#0ad6ff" d="M190 666h50V482h-49l-1 184z"/><path d="M261 462h-90v224h89zm-21 204h-50V482h49z"/></svg>